# xmcd CD database file
#
# Track frame offsets:
#	150
#	19168
#	38109
#	55193
#	79716
#	94885
#	115493
#	130851
#	145859
#	166274
#	185403
#	199374
#	215973
#	230824
#	246240
#
# Disc length: 3533 seconds
#
# Revision: 0
# Processed by: cddbd v1.5.1PL0 Copyright (c) Steve Scherf et al.
# Submitted via: CDex 1.51
#
DISCID=df0dcb0f
DTITLE=Dixie Brothers - The Sunny Side of Jazz
DYEAR=1995
DGENRE=Jazz
TTITLE0=South Rampart Street Parade
TTITLE1=Lonesomest Girl in Town
TTITLE2=Stevedore Stomp
TTITLE3=St. Louis Blues
TTITLE4=Cakewalking Babies
TTITLE5=Basin Street Blues
TTITLE6=At the Jazzband Ball
TTITLE7=Savoy Blues
TTITLE8=Lady be good
TTITLE9=Am I blue
TTITLE10=Ory´s creole Trombone
TTITLE11=Big bass drum
TTITLE12=Bugle call rag
TTITLE13=When the saints
TTITLE14=What a wonderful world
EXTD=YEAR: 1995
EXTT0=
EXTT1=
EXTT2=
EXTT3=
EXTT4=
EXTT5=
EXTT6=
EXTT7=
EXTT8=
EXTT9=
EXTT10=
EXTT11=
EXTT12=
EXTT13=
EXTT14=
PLAYORDER=
